# xmcd
#
# Track frame offsets: 
#        150
#        13560
#        27967
#        40730
#        53550
#        65545
#        77502
#        92562
#        105372
#        118437
#        131680
#        145420
#        159182
#        171735
#        183052
#        197247
#        209422
#        224407
#        236900
#        248460
#        262602
#        275167
#        289035
#        303125
#        316170
#        328910
#        341212
#
# Disc length: 4745 seconds
#
# Revision: 0
# Processed by: cddbd v1.4PL0 Copyright (c) Steve Scherf et al.
# Submitted via: ExactAudioCopy v0.90b4
#
DISCID=8812871b
DTITLE=Hank Snow - The Yodelling Ranger, Vol. 1 - Disc 4
DYEAR=1900
DGENRE=Country
TTITLE0=Just A Faded Petal From A Beautiful Bouquet
TTITLE1=My Sweet Texas Bluebonnet Queen
TTITLE2=I'm Gonna Bid My Blues Goodbye
TTITLE3=Down Where The Dark Waters Flow
TTITLE4=Answer To 'Galveston Rose'
TTITLE5=Brand On My Heart
TTITLE6=No Golden Tomorrow Ahead
TTITLE7=On That Old Hawaiian Shore With You
TTITLE8=You've Broken My Heart
TTITLE9=Linda Lou
TTITLE10=My Mother
TTITLE11=The Drunkard's Son
TTITLE12=Within This Broken Heart Of Mine
TTITLE13=My Filipino Rose
TTITLE14=The Night I Stole Old Sammy Morgan's Gin
TTITLE15=My Two Timin' Woman
TTITLE16=Wasted Love
TTITLE17=Broken Hearted
TTITLE18=Your Sad Kiss Goodbye
TTITLE19=Somewhere Along Life's Highway
TTITLE20=Out On The Open Range
TTITLE21=Little Buddy
TTITLE22=Journey My Baby Back Home '146'
TTITLE23=I Knew That We'd Meet Again
TTITLE24=Within This Broken Heart Of Mine (Alt)
TTITLE25=My Two Timin' Woman (Alt)
TTITLE26=Wasted Love (Alt)
EXTD=
EXTT0=
EXTT1=
EXTT2=
EXTT3=
EXTT4=
EXTT5=
EXTT6=
EXTT7=
EXTT8=
EXTT9=
EXTT10=
EXTT11=
EXTT12=
EXTT13=
EXTT14=
EXTT15=
EXTT16=
EXTT17=
EXTT18=
EXTT19=
EXTT20=
EXTT21=
EXTT22=
EXTT23=
EXTT24=
EXTT25=
EXTT26=
PLAYORDER=
